<svg xmlns="http://www.w3.org/2000/svg" xmlns:xlink="http://www.w3.org/1999/xlink" width="500" zoomAndPan="magnify" viewBox="0 0 375 374.999991" height="500" preserveAspectRatio="xMidYMid meet" version="1.0"><defs><g/></defs><g fill="#20438e" fill-opacity="1"><g transform="translate(64.928761, 270.948212)"><g><path d="M 16.328125 0.203125 C 15.253906 0.203125 13.984375 0.148438 12.515625 0.046875 C 11.984375 0.015625 11.320312 -0.015625 10.53125 -0.046875 C 9.75 -0.078125 8.875 -0.09375 7.90625 -0.09375 L 4.203125 -0.046875 C 3.535156 -0.015625 2.632812 0 1.5 0 C 1.4375 0 1.40625 -0.0976562 1.40625 -0.296875 C 1.40625 -0.492188 1.4375 -0.59375 1.5 -0.59375 C 2.570312 -0.59375 3.359375 -0.675781 3.859375 -0.84375 C 4.359375 -1.007812 4.695312 -1.332031 4.875 -1.8125 C 5.0625 -2.300781 5.15625 -3.050781 5.15625 -4.0625 L 5.15625 -27.234375 C 5.15625 -28.234375 5.0625 -28.96875 4.875 -29.4375 C 4.695312 -29.90625 4.363281 -30.226562 3.875 -30.40625 C 3.394531 -30.59375 2.640625 -30.6875 1.609375 -30.6875 C 1.503906 -30.6875 1.453125 -30.785156 1.453125 -30.984375 C 1.453125 -31.179688 1.503906 -31.28125 1.609375 -31.28125 L 4.25 -31.234375 C 5.789062 -31.171875 7.007812 -31.140625 7.90625 -31.140625 C 9.28125 -31.140625 10.679688 -31.1875 12.109375 -31.28125 C 13.847656 -31.351562 15.019531 -31.390625 15.625 -31.390625 C 18.988281 -31.390625 21.976562 -30.722656 24.59375 -29.390625 C 27.21875 -28.054688 29.25 -26.234375 30.6875 -23.921875 C 32.125 -21.617188 32.84375 -19.035156 32.84375 -16.171875 C 32.84375 -12.929688 32.097656 -10.066406 30.609375 -7.578125 C 29.128906 -5.097656 27.128906 -3.179688 24.609375 -1.828125 C 22.085938 -0.472656 19.328125 0.203125 16.328125 0.203125 Z M 15.8125 -0.953125 C 17.957031 -0.953125 19.847656 -1.492188 21.484375 -2.578125 C 23.117188 -3.660156 24.394531 -5.269531 25.3125 -7.40625 C 26.226562 -9.539062 26.6875 -12.09375 26.6875 -15.0625 C 26.6875 -17.90625 26.25 -20.484375 25.375 -22.796875 C 24.507812 -25.117188 23.273438 -26.945312 21.671875 -28.28125 C 20.078125 -29.613281 18.226562 -30.28125 16.125 -30.28125 C 14.050781 -30.28125 12.628906 -30.082031 11.859375 -29.6875 C 11.097656 -29.289062 10.71875 -28.441406 10.71875 -27.140625 L 10.71875 -4.609375 C 10.71875 -3.273438 11.066406 -2.332031 11.765625 -1.78125 C 12.460938 -1.226562 13.8125 -0.953125 15.8125 -0.953125 Z M 15.8125 -0.953125 "/></g></g></g><g fill="#20438e" fill-opacity="1"><g transform="translate(110.233203, 270.948212)"><g><path d="M 24.828125 -7.953125 C 24.828125 -8.023438 24.894531 -8.0625 25.03125 -8.0625 C 25.132812 -8.0625 25.226562 -8.035156 25.3125 -7.984375 C 25.394531 -7.929688 25.4375 -7.890625 25.4375 -7.859375 C 25.101562 -5.253906 24.9375 -2.882812 24.9375 -0.75 C 24.9375 -0.476562 24.882812 -0.285156 24.78125 -0.171875 C 24.675781 -0.0546875 24.476562 0 24.1875 0 L 2.046875 0 C 1.953125 0 1.90625 -0.0976562 1.90625 -0.296875 C 1.90625 -0.492188 1.953125 -0.59375 2.046875 -0.59375 C 3.117188 -0.59375 3.894531 -0.675781 4.375 -0.84375 C 4.863281 -1.007812 5.191406 -1.332031 5.359375 -1.8125 C 5.523438 -2.300781 5.609375 -3.050781 5.609375 -4.0625 L 5.609375 -27.234375 C 5.609375 -28.234375 5.523438 -28.96875 5.359375 -29.4375 C 5.191406 -29.90625 4.859375 -30.226562 4.359375 -30.40625 C 3.859375 -30.59375 3.085938 -30.6875 2.046875 -30.6875 C 1.953125 -30.6875 1.90625 -30.785156 1.90625 -30.984375 C 1.90625 -31.179688 1.953125 -31.28125 2.046875 -31.28125 L 23.28125 -31.28125 C 23.613281 -31.28125 23.78125 -31.132812 23.78125 -30.84375 L 23.875 -24.1875 C 23.875 -24.113281 23.78125 -24.0625 23.59375 -24.03125 C 23.414062 -24 23.3125 -24.03125 23.28125 -24.125 C 22.75 -26.0625 21.847656 -27.5 20.578125 -28.4375 C 19.304688 -29.375 17.632812 -29.84375 15.5625 -29.84375 L 14.0625 -29.84375 C 13.0625 -29.84375 12.328125 -29.625 11.859375 -29.1875 C 11.390625 -28.75 11.15625 -28.082031 11.15625 -27.1875 L 11.15625 -16.96875 L 15.3125 -16.96875 C 17.25 -16.96875 18.734375 -17.300781 19.765625 -17.96875 C 20.804688 -18.632812 21.328125 -19.570312 21.328125 -20.78125 C 21.328125 -20.875 21.414062 -20.921875 21.59375 -20.921875 C 21.78125 -20.921875 21.875 -20.875 21.875 -20.78125 L 21.828125 -16.265625 L 21.875 -13.875 C 21.945312 -12.738281 21.984375 -11.832031 21.984375 -11.15625 C 21.984375 -11.09375 21.878906 -11.0625 21.671875 -11.0625 C 21.472656 -11.0625 21.375 -11.09375 21.375 -11.15625 C 21.375 -12.53125 20.847656 -13.609375 19.796875 -14.390625 C 18.742188 -15.171875 17.234375 -15.5625 15.265625 -15.5625 L 11.15625 -15.5625 L 11.15625 -4.25 C 11.15625 -3.28125 11.335938 -2.5625 11.703125 -2.09375 C 12.078125 -1.632812 12.664062 -1.40625 13.46875 -1.40625 L 15.125 -1.40625 C 17.726562 -1.40625 19.8125 -1.9375 21.375 -3 C 22.945312 -4.070312 24.097656 -5.722656 24.828125 -7.953125 Z M 24.828125 -7.953125 "/></g></g></g><g fill="#20438e" fill-opacity="1"><g transform="translate(147.878439, 270.948212)"><g><path d="M 36.1875 -31.28125 C 36.257812 -31.28125 36.296875 -31.179688 36.296875 -30.984375 C 36.296875 -30.785156 36.257812 -30.6875 36.1875 -30.6875 C 34.851562 -30.6875 33.800781 -30.160156 33.03125 -29.109375 C 32.269531 -28.054688 31.890625 -26.644531 31.890625 -24.875 L 31.890625 0.75 C 31.890625 0.851562 31.8125 0.921875 31.65625 0.953125 C 31.507812 0.984375 31.40625 0.96875 31.34375 0.90625 L 7.859375 -25.828125 L 7.859375 -6.359375 C 7.859375 -4.585938 8.222656 -3.179688 8.953125 -2.140625 C 9.691406 -1.109375 10.710938 -0.59375 12.015625 -0.59375 C 12.078125 -0.59375 12.109375 -0.492188 12.109375 -0.296875 C 12.109375 -0.0976562 12.078125 0 12.015625 0 C 11.078125 0 10.359375 -0.015625 9.859375 -0.046875 L 7.15625 -0.09375 L 4.0625 -0.046875 C 3.488281 -0.015625 2.671875 0 1.609375 0 C 1.503906 0 1.453125 -0.0976562 1.453125 -0.296875 C 1.453125 -0.492188 1.503906 -0.59375 1.609375 -0.59375 C 3.078125 -0.59375 4.234375 -1.109375 5.078125 -2.140625 C 5.929688 -3.179688 6.359375 -4.585938 6.359375 -6.359375 L 6.359375 -27.53125 C 5.253906 -28.738281 4.3125 -29.566406 3.53125 -30.015625 C 2.75 -30.460938 1.9375 -30.6875 1.09375 -30.6875 C 1.03125 -30.6875 1 -30.785156 1 -30.984375 C 1 -31.179688 1.03125 -31.28125 1.09375 -31.28125 L 3.203125 -31.234375 C 3.640625 -31.203125 4.273438 -31.1875 5.109375 -31.1875 L 8.90625 -31.234375 C 9.375 -31.265625 9.941406 -31.28125 10.609375 -31.28125 C 10.878906 -31.28125 11.082031 -31.210938 11.21875 -31.078125 C 11.351562 -30.953125 11.585938 -30.671875 11.921875 -30.234375 C 12.484375 -29.472656 12.878906 -28.957031 13.109375 -28.6875 L 30.4375 -8.703125 L 30.4375 -24.875 C 30.4375 -26.675781 30.066406 -28.09375 29.328125 -29.125 C 28.597656 -30.164062 27.582031 -30.6875 26.28125 -30.6875 C 26.21875 -30.6875 26.1875 -30.785156 26.1875 -30.984375 C 26.1875 -31.179688 26.21875 -31.28125 26.28125 -31.28125 L 28.4375 -31.234375 C 29.5 -31.171875 30.398438 -31.140625 31.140625 -31.140625 C 31.804688 -31.140625 32.738281 -31.171875 33.9375 -31.234375 Z M 36.1875 -31.28125 "/></g></g></g><g fill="#20438e" fill-opacity="1"><g transform="translate(194.684677, 270.948212)"><g><path d="M 11.109375 -30.140625 C 7.140625 -30.140625 4.285156 -27.550781 2.546875 -22.375 C 2.515625 -22.28125 2.414062 -22.238281 2.25 -22.25 C 2.082031 -22.269531 2 -22.328125 2 -22.421875 C 2.132812 -23.765625 2.285156 -25.492188 2.453125 -27.609375 C 2.617188 -29.722656 2.703125 -31.316406 2.703125 -32.390625 C 2.703125 -32.554688 2.789062 -32.640625 2.96875 -32.640625 C 3.15625 -32.640625 3.25 -32.554688 3.25 -32.390625 C 3.25 -31.648438 4.203125 -31.28125 6.109375 -31.28125 C 8.972656 -31.1875 12.328125 -31.140625 16.171875 -31.140625 C 18.140625 -31.140625 20.222656 -31.171875 22.421875 -31.234375 L 25.828125 -31.28125 C 27.097656 -31.28125 28.023438 -31.363281 28.609375 -31.53125 C 29.191406 -31.707031 29.566406 -32.046875 29.734375 -32.546875 C 29.765625 -32.671875 29.875 -32.734375 30.0625 -32.734375 C 30.25 -32.734375 30.34375 -32.671875 30.34375 -32.546875 C 30.238281 -31.535156 30.128906 -29.929688 30.015625 -27.734375 C 29.898438 -25.535156 29.84375 -23.765625 29.84375 -22.421875 C 29.84375 -22.328125 29.757812 -22.28125 29.59375 -22.28125 C 29.425781 -22.28125 29.320312 -22.328125 29.28125 -22.421875 C 28.78125 -24.992188 27.847656 -26.921875 26.484375 -28.203125 C 25.117188 -29.492188 23.429688 -30.140625 21.421875 -30.140625 C 20.453125 -30.140625 19.8125 -29.929688 19.5 -29.515625 C 19.1875 -29.097656 19.03125 -28.304688 19.03125 -27.140625 L 19.03125 -4.0625 C 19.03125 -3.019531 19.128906 -2.265625 19.328125 -1.796875 C 19.523438 -1.328125 19.90625 -1.007812 20.46875 -0.84375 C 21.039062 -0.675781 21.941406 -0.59375 23.171875 -0.59375 C 23.273438 -0.59375 23.328125 -0.492188 23.328125 -0.296875 C 23.328125 -0.0976562 23.273438 0 23.171875 0 C 21.972656 0 21.023438 -0.015625 20.328125 -0.046875 L 16.171875 -0.09375 L 12.109375 -0.046875 C 11.410156 -0.015625 10.445312 0 9.21875 0 C 9.113281 0 9.0625 -0.0976562 9.0625 -0.296875 C 9.0625 -0.492188 9.113281 -0.59375 9.21875 -0.59375 C 10.414062 -0.59375 11.304688 -0.675781 11.890625 -0.84375 C 12.472656 -1.007812 12.875 -1.332031 13.09375 -1.8125 C 13.3125 -2.300781 13.421875 -3.050781 13.421875 -4.0625 L 13.421875 -27.234375 C 13.421875 -28.367188 13.269531 -29.132812 12.96875 -29.53125 C 12.664062 -29.9375 12.046875 -30.140625 11.109375 -30.140625 Z M 11.109375 -30.140625 "/></g></g></g><g fill="#20438e" fill-opacity="1"><g transform="translate(236.885389, 270.948212)"><g><path d="M 35.890625 -0.59375 C 36.054688 -0.59375 36.140625 -0.492188 36.140625 -0.296875 C 36.140625 -0.0976562 36.054688 0 35.890625 0 C 35.222656 0 34.191406 -0.03125 32.796875 -0.09375 C 31.328125 -0.164062 30.273438 -0.203125 29.640625 -0.203125 C 28.804688 -0.203125 27.785156 -0.164062 26.578125 -0.09375 C 25.441406 -0.03125 24.539062 0 23.875 0 C 23.738281 0 23.671875 -0.0976562 23.671875 -0.296875 C 23.671875 -0.492188 23.738281 -0.59375 23.875 -0.59375 C 24.75 -0.59375 25.375 -0.6875 25.75 -0.875 C 26.132812 -1.0625 26.328125 -1.390625 26.328125 -1.859375 C 26.328125 -2.421875 25.992188 -3.367188 25.328125 -4.703125 L 21.921875 -11.46875 L 9.609375 -11.46875 L 7.65625 -7.109375 C 7.226562 -6.140625 7.015625 -5.238281 7.015625 -4.40625 C 7.015625 -3.207031 7.4375 -2.269531 8.28125 -1.59375 C 9.132812 -0.925781 10.28125 -0.59375 11.71875 -0.59375 C 11.882812 -0.59375 11.96875 -0.492188 11.96875 -0.296875 C 11.96875 -0.0976562 11.882812 0 11.71875 0 C 11.113281 0 10.242188 -0.03125 9.109375 -0.09375 C 7.835938 -0.164062 6.738281 -0.203125 5.8125 -0.203125 C 4.90625 -0.203125 3.816406 -0.164062 2.546875 -0.09375 C 1.410156 -0.03125 0.492188 0 -0.203125 0 C -0.335938 0 -0.40625 -0.0976562 -0.40625 -0.296875 C -0.40625 -0.492188 -0.335938 -0.59375 -0.203125 -0.59375 C 0.734375 -0.59375 1.519531 -0.785156 2.15625 -1.171875 C 2.789062 -1.554688 3.421875 -2.238281 4.046875 -3.21875 C 4.679688 -4.207031 5.4375 -5.671875 6.3125 -7.609375 L 17.171875 -31.484375 C 17.234375 -31.585938 17.382812 -31.640625 17.625 -31.640625 C 17.882812 -31.640625 18.035156 -31.585938 18.078125 -31.484375 L 30.59375 -6.859375 C 31.757812 -4.484375 32.722656 -2.84375 33.484375 -1.9375 C 34.253906 -1.039062 35.054688 -0.59375 35.890625 -0.59375 Z M 10.265625 -12.859375 L 21.171875 -12.859375 L 15.421875 -24.28125 Z M 10.265625 -12.859375 "/></g></g></g><g fill="#20438e" fill-opacity="1"><g transform="translate(282.74049, 270.948212)"><g><path d="M 10.65625 -4.25 C 10.65625 -3.382812 10.722656 -2.757812 10.859375 -2.375 C 10.992188 -1.988281 11.253906 -1.726562 11.640625 -1.59375 C 12.023438 -1.46875 12.648438 -1.40625 13.515625 -1.40625 L 15.21875 -1.40625 C 17.820312 -1.40625 20.070312 -2.097656 21.96875 -3.484375 C 23.875 -4.867188 25.144531 -6.742188 25.78125 -9.109375 C 25.78125 -9.179688 25.847656 -9.21875 25.984375 -9.21875 C 26.046875 -9.21875 26.117188 -9.191406 26.203125 -9.140625 C 26.285156 -9.085938 26.328125 -9.046875 26.328125 -9.015625 C 26.023438 -5.710938 25.875 -2.957031 25.875 -0.75 C 25.875 -0.476562 25.816406 -0.285156 25.703125 -0.171875 C 25.585938 -0.0546875 25.394531 0 25.125 0 L 1.5 0 C 1.4375 0 1.40625 -0.0976562 1.40625 -0.296875 C 1.40625 -0.492188 1.4375 -0.59375 1.5 -0.59375 C 2.570312 -0.59375 3.347656 -0.675781 3.828125 -0.84375 C 4.316406 -1.007812 4.648438 -1.332031 4.828125 -1.8125 C 5.015625 -2.300781 5.109375 -3.050781 5.109375 -4.0625 L 5.109375 -27.234375 C 5.109375 -28.234375 5.015625 -28.96875 4.828125 -29.4375 C 4.648438 -29.90625 4.304688 -30.226562 3.796875 -30.40625 C 3.296875 -30.59375 2.53125 -30.6875 1.5 -30.6875 C 1.4375 -30.6875 1.40625 -30.785156 1.40625 -30.984375 C 1.40625 -31.179688 1.4375 -31.28125 1.5 -31.28125 L 4.0625 -31.234375 C 5.59375 -31.171875 6.859375 -31.140625 7.859375 -31.140625 C 8.859375 -31.140625 10.128906 -31.171875 11.671875 -31.234375 L 14.21875 -31.28125 C 14.320312 -31.28125 14.375 -31.179688 14.375 -30.984375 C 14.375 -30.785156 14.320312 -30.6875 14.21875 -30.6875 C 13.1875 -30.6875 12.414062 -30.59375 11.90625 -30.40625 C 11.40625 -30.226562 11.070312 -29.894531 10.90625 -29.40625 C 10.738281 -28.925781 10.65625 -28.1875 10.65625 -27.1875 Z M 10.65625 -4.25 "/></g></g></g><g fill="#777e82" fill-opacity="1"><g transform="translate(120.50273, 301.654639)"><g><path d="M 7.53125 0.109375 C 6.28125 0.109375 5.148438 -0.164062 4.140625 -0.71875 C 3.140625 -1.269531 2.351562 -2.035156 1.78125 -3.015625 C 1.21875 -3.992188 0.9375 -5.085938 0.9375 -6.296875 C 0.9375 -7.515625 1.21875 -8.609375 1.78125 -9.578125 C 2.351562 -10.554688 3.144531 -11.320312 4.15625 -11.875 C 5.164062 -12.425781 6.296875 -12.703125 7.546875 -12.703125 C 8.484375 -12.703125 9.347656 -12.546875 10.140625 -12.234375 C 10.929688 -11.921875 11.601562 -11.46875 12.15625 -10.875 L 11.296875 -10.03125 C 10.316406 -11.019531 9.078125 -11.515625 7.578125 -11.515625 C 6.578125 -11.515625 5.671875 -11.285156 4.859375 -10.828125 C 4.046875 -10.378906 3.40625 -9.757812 2.9375 -8.96875 C 2.476562 -8.175781 2.25 -7.285156 2.25 -6.296875 C 2.25 -5.316406 2.476562 -4.429688 2.9375 -3.640625 C 3.40625 -2.847656 4.046875 -2.222656 4.859375 -1.765625 C 5.671875 -1.304688 6.578125 -1.078125 7.578125 -1.078125 C 9.085938 -1.078125 10.328125 -1.582031 11.296875 -2.59375 L 12.15625 -1.75 C 11.601562 -1.144531 10.925781 -0.679688 10.125 -0.359375 C 9.320312 -0.046875 8.457031 0.109375 7.53125 0.109375 Z M 7.53125 0.109375 "/></g></g></g><g fill="#777e82" fill-opacity="1"><g transform="translate(147.844692, 301.654639)"><g><path d="M 2.046875 -12.59375 L 3.390625 -12.59375 L 3.390625 -1.15625 L 10.4375 -1.15625 L 10.4375 0 L 2.046875 0 Z M 2.046875 -12.59375 "/></g></g></g><g fill="#777e82" fill-opacity="1"><g transform="translate(172.846658, 301.654639)"><g><path d="M 2.046875 -12.59375 L 3.390625 -12.59375 L 3.390625 0 L 2.046875 0 Z M 2.046875 -12.59375 "/></g></g></g><g fill="#777e82" fill-opacity="1"><g transform="translate(192.68265, 301.654639)"><g><path d="M 12.578125 -12.59375 L 12.578125 0 L 11.484375 0 L 3.390625 -10.21875 L 3.390625 0 L 2.046875 0 L 2.046875 -12.59375 L 3.15625 -12.59375 L 11.265625 -2.375 L 11.265625 -12.59375 Z M 12.578125 -12.59375 "/></g></g></g><g fill="#777e82" fill-opacity="1"><g transform="translate(221.716606, 301.654639)"><g><path d="M 2.046875 -12.59375 L 3.390625 -12.59375 L 3.390625 0 L 2.046875 0 Z M 2.046875 -12.59375 "/></g></g></g><g fill="#777e82" fill-opacity="1"><g transform="translate(241.552592, 301.654639)"><g><path d="M 7.53125 0.109375 C 6.28125 0.109375 5.148438 -0.164062 4.140625 -0.71875 C 3.140625 -1.269531 2.351562 -2.035156 1.78125 -3.015625 C 1.21875 -3.992188 0.9375 -5.085938 0.9375 -6.296875 C 0.9375 -7.515625 1.21875 -8.609375 1.78125 -9.578125 C 2.351562 -10.554688 3.144531 -11.320312 4.15625 -11.875 C 5.164062 -12.425781 6.296875 -12.703125 7.546875 -12.703125 C 8.484375 -12.703125 9.347656 -12.546875 10.140625 -12.234375 C 10.929688 -11.921875 11.601562 -11.46875 12.15625 -10.875 L 11.296875 -10.03125 C 10.316406 -11.019531 9.078125 -11.515625 7.578125 -11.515625 C 6.578125 -11.515625 5.671875 -11.285156 4.859375 -10.828125 C 4.046875 -10.378906 3.40625 -9.757812 2.9375 -8.96875 C 2.476562 -8.175781 2.25 -7.285156 2.25 -6.296875 C 2.25 -5.316406 2.476562 -4.429688 2.9375 -3.640625 C 3.40625 -2.847656 4.046875 -2.222656 4.859375 -1.765625 C 5.671875 -1.304688 6.578125 -1.078125 7.578125 -1.078125 C 9.085938 -1.078125 10.328125 -1.582031 11.296875 -2.59375 L 12.15625 -1.75 C 11.601562 -1.144531 10.925781 -0.679688 10.125 -0.359375 C 9.320312 -0.046875 8.457031 0.109375 7.53125 0.109375 Z M 7.53125 0.109375 "/></g></g></g><path fill="#20438e" d="M 209.277344 91.085938 C 186.351562 90.957031 160.6875 69.152344 140.625 80.183594 C 120.5625 91.214844 127.207031 113.925781 136 127.164062 C 144.792969 140.402344 152.21875 153.25 153.976562 157.726562 C 152.414062 140.402344 138.734375 116.261719 141.082031 102.636719 C 143.425781 89.007812 152.21875 83.167969 173.519531 90.957031 C 194.820312 98.742188 209.277344 91.085938 209.277344 91.085938 " fill-opacity="1" fill-rule="nonzero"/><path fill="#949697" d="M 189.152344 81.808594 C 212.015625 81.808594 231.035156 68.375 244.84375 80.640625 C 254.746094 89.433594 252.660156 121.324219 233.507812 146.824219 C 236.050781 127.75 245.234375 113.339844 240.933594 98.742188 C 236.632812 84.140625 227.4375 83.03125 215.910156 84.589844 C 204.378906 86.148438 196.1875 85.699219 189.152344 81.808594 " fill-opacity="1" fill-rule="nonzero"/><path fill="#20438e" d="M 244.453125 137.289062 C 235.65625 156.558594 232.074219 171.417969 232.074219 195.296875 C 232.074219 210.484375 225.886719 215.347656 216.898438 202.113281 C 207.910156 188.875 204.199219 162.398438 204.199219 162.398438 C 208.886719 176.027344 217.433594 195.601562 222.566406 194.390625 C 227.515625 193.222656 222.042969 162.074219 244.453125 137.289062 " fill-opacity="1" fill-rule="nonzero"/><path fill="#949697" d="M 138.148438 138.453125 C 148.898438 163.566406 150.070312 172.234375 152.828125 189.945312 C 156.910156 216.128906 173.519531 215.542969 179.574219 206.003906 C 185.632812 196.464844 188.371094 185.277344 191.691406 173.546875 C 195.015625 161.816406 200.09375 148.1875 204.199219 153.445312 C 204 141.960938 195.597656 144.296875 191.691406 155.003906 C 187.785156 165.707031 177.699219 205.226562 168.378906 202.113281 C 159.058594 198.996094 159.363281 188.457031 156.472656 173.546875 C 152.976562 155.5 138.148438 138.453125 138.148438 138.453125 " fill-opacity="1" fill-rule="nonzero"/></svg>